<svg width="40" height="40" viewBox="0 0 40 40" fill="none" xmlns="http://www.w3.org/2000/svg">
<g clip-path="url(#clip0_236_2344)">
<path d="M12.3522 16.1423C12.5778 15.9168 12.8837 15.7901 13.2026 15.7901C13.5216 15.7901 13.8275 15.9168 14.053 16.1423L20.0073 22.0965L25.9615 16.1423C26.1883 15.9232 26.4922 15.802 26.8076 15.8047C27.123 15.8074 27.4247 15.9339 27.6477 16.157C27.8707 16.38 27.9972 16.6817 28 16.9971C28.0027 17.3125 27.8815 17.6163 27.6623 17.8432L20.8577 24.6478C20.6321 24.8733 20.3262 25 20.0073 25C19.6883 25 19.3824 24.8733 19.1568 24.6478L12.3522 17.8432C12.1267 17.6176 12 17.3117 12 16.9927C12 16.6738 12.1267 16.3679 12.3522 16.1423Z" fill="black"/>
</g>
<rect x="1" y="-1" width="38" height="38" rx="19" transform="matrix(1 0 0 -1 0 38)" stroke="black" stroke-width="2"/>
<defs>
<clipPath id="clip0_236_2344">
<rect width="16" height="16" fill="white" transform="matrix(1 0 0 -1 12 28)"/>
</clipPath>
</defs>
</svg>
