<svg width="49" height="49" viewBox="0 0 49 49" fill="none" xmlns="http://www.w3.org/2000/svg">
<circle cx="24.1138" cy="24.2561" r="24" fill="#FF5555"/>
<path d="M26.1138 33.2561H22.1138M30.1138 20.2561C30.1138 18.6648 29.4816 17.1387 28.3564 16.0135C27.2312 14.8882 25.7051 14.2561 24.1138 14.2561C22.5225 14.2561 20.9964 14.8882 19.8711 16.0135C18.7459 17.1387 18.1138 18.6648 18.1138 20.2561C18.1138 23.3463 17.3343 25.4621 16.4635 26.8615C15.7289 28.042 15.3616 28.6322 15.3751 28.7969C15.39 28.9792 15.4286 29.0487 15.5756 29.1577C15.7082 29.2561 16.3064 29.2561 17.5026 29.2561H30.7249C31.9212 29.2561 32.5193 29.2561 32.652 29.1577C32.7989 29.0487 32.8376 28.9792 32.8525 28.7969C32.8659 28.6322 32.4987 28.042 31.7641 26.8615C30.8933 25.4621 30.1138 23.3463 30.1138 20.2561Z" stroke="white" stroke-width="2" stroke-linecap="round" stroke-linejoin="round"/>
</svg>
