<svg width="26" height="26" viewBox="0 0 26 26" fill="none" xmlns="http://www.w3.org/2000/svg">
<g clip-path="url(#clip0_237_196)">
<path fill-rule="evenodd" clip-rule="evenodd" d="M12.9999 14.2372L16.0933 17.3312C16.2575 17.4953 16.4801 17.5876 16.7123 17.5876C16.9444 17.5876 17.167 17.4953 17.3312 17.3312C17.4953 17.167 17.5875 16.9444 17.5875 16.7123C17.5875 16.4801 17.4953 16.2575 17.3312 16.0934L14.2366 12.9999L17.3306 9.90653C17.4118 9.82525 17.4763 9.72877 17.5202 9.62259C17.5642 9.51641 17.5868 9.40261 17.5868 9.28769C17.5867 9.17278 17.5641 9.05899 17.5201 8.95283C17.4761 8.84667 17.4116 8.75022 17.3303 8.66898C17.249 8.58774 17.1525 8.52331 17.0464 8.47936C16.9402 8.43541 16.8264 8.4128 16.7115 8.41283C16.5966 8.41285 16.4828 8.43551 16.3766 8.47952C16.2705 8.52352 16.174 8.588 16.0928 8.66928L12.9999 11.7627L9.90652 8.66928C9.82584 8.58567 9.72932 8.51896 9.62259 8.47306C9.51585 8.42715 9.40105 8.40296 9.28487 8.40189C9.16869 8.40083 9.05346 8.42291 8.9459 8.46686C8.83835 8.5108 8.74062 8.57573 8.65843 8.65785C8.57623 8.73996 8.51122 8.83763 8.46717 8.94514C8.42312 9.05265 8.40093 9.16786 8.40188 9.28404C8.40284 9.40023 8.42692 9.51505 8.47273 9.62183C8.51854 9.7286 8.58515 9.82519 8.66868 9.90594L11.7633 12.9999L8.66927 16.0934C8.50512 16.2575 8.4129 16.4801 8.4129 16.7123C8.4129 16.9444 8.50512 17.167 8.66927 17.3312C8.83341 17.4953 9.05604 17.5876 9.28818 17.5876C9.52032 17.5876 9.74295 17.4953 9.9071 17.3312L12.9999 14.2366V14.2372Z" fill="white"/>
</g>
<rect x="0.7" y="0.7" width="24.6" height="24.6" rx="12.3" stroke="white" stroke-width="1.4"/>
<defs>
<clipPath id="clip0_237_196">
<rect width="14" height="14" fill="white" transform="translate(6 6)"/>
</clipPath>
</defs>
</svg>
