<svg width="26" height="26" viewBox="0 0 26 26" fill="none" xmlns="http://www.w3.org/2000/svg">
<path fill-rule="evenodd" clip-rule="evenodd" d="M3.79165 5.41669C3.50433 5.41669 3.22878 5.53082 3.02561 5.73399C2.82245 5.93715 2.70831 6.2127 2.70831 6.50002C2.70831 6.78734 2.82245 7.06289 3.02561 7.26605C3.22878 7.46922 3.50433 7.58335 3.79165 7.58335H22.2083C22.4956 7.58335 22.7712 7.46922 22.9743 7.26605C23.1775 7.06289 23.2916 6.78734 23.2916 6.50002C23.2916 6.2127 23.1775 5.93715 22.9743 5.73399C22.7712 5.53082 22.4956 5.41669 22.2083 5.41669H3.79165ZM2.70831 13C2.70831 12.7127 2.82245 12.4372 3.02561 12.234C3.22878 12.0308 3.50433 11.9167 3.79165 11.9167H22.2083C22.4956 11.9167 22.7712 12.0308 22.9743 12.234C23.1775 12.4372 23.2916 12.7127 23.2916 13C23.2916 13.2873 23.1775 13.5629 22.9743 13.7661C22.7712 13.9692 22.4956 14.0834 22.2083 14.0834H3.79165C3.50433 14.0834 3.22878 13.9692 3.02561 13.7661C2.82245 13.5629 2.70831 13.2873 2.70831 13ZM2.70831 19.5011C2.70831 19.2138 2.82245 18.9382 3.02561 18.7351C3.22878 18.5319 3.50433 18.4178 3.79165 18.4178H22.2083C22.4956 18.4178 22.7712 18.5319 22.9743 18.7351C23.1775 18.9382 23.2916 19.2138 23.2916 19.5011C23.2916 19.7884 23.1775 20.064 22.9743 20.2671C22.7712 20.4703 22.4956 20.5844 22.2083 20.5844H3.79165C3.50433 20.5844 3.22878 20.4703 3.02561 20.2671C2.82245 20.064 2.70831 19.7884 2.70831 19.5011Z" fill="#FF5555"/>
</svg>
